<?xml version="1.0" encoding="UTF-8" standalone="yes"?>
<!DOCTYPE svg PUBLIC "-//W3C//DTD SVG 1.0//EN" "http://www.w3.org/TR/2001/REC-SVG-20010904/DTD/svg10.dtd">
<svg width="100.000000" height="100.000000" xmlns="http://www.w3.org/2000/svg" xmlns:svg="http://www.w3.org/2000/svg" xmlns:xlink="http://www.w3.org/1999/xlink" xmlns:slic3r="http://slic3r.org/namespaces/slic3r" viewport-fill="black">
<!-- Generated using Slic3r 1.3.0-dev http://slic3r.org/ -->
	<g id="layer0" slic3r:z="0.4000" slic3r:slice-z="0.2000" slic3r:layer-height="0.4000">
		<path d="M 50.6526 41.622 50.6798 41.6205 51.3304 41.5583 51.3575 41.5557 52.005 41.4673 52.032 41.4636 52.6755 41.3491 52.7023 41.3444 53.3406 41.2041 53.3672 41.1982 53.9994 41.0324 54.0257 41.0254 54.6507 40.8342 54.6767 40.8262 54.7024 40.8172 55.3192 40.601 55.9267 40.36 55.952 40.35 55.952 40 50 40 50 41.658 z " style="fill: green; stroke: black; stroke-width: 0; fill-type: evenodd" slic3r:area="-0.0021" />
		<path d="M 50.737 42.5187 50.7677 42.513 51.4997 42.3515 51.5303 42.3448 52.2566 42.1593 52.2869 42.1516 52.3168 42.1428 53.0367 41.9335 53.7492 41.7005 53.7789 41.6908 54.4834 41.4345 54.5127 41.4238 55.2084 41.1444 55.2374 41.1328 55.9234 40.8306 55.952 40.818 55.952 40.5 55.9235 40.5117 55.2394 40.7921 55.2105 40.8026 54.5154 41.0543 54.486 41.0635 53.781 41.2861 53.6883 41.3112 53.0376 41.4872 53.0076 41.494 52.2865 41.6572 52.2562 41.6627 51.529 41.7958 51.4985 41.8001 50.7664 41.9028 50.7358 41.9058 50 41.978 50 42.656 z " style="fill: blue; stroke: black; stroke-width: 0; fill-type: evenodd" slic3r:area="-0.0021" />
		<path d="M 50.982 43.8352 51.0229 43.8184 51.9939 43.3898 52.0344 43.3719 52.9938 42.9179 53.0337 42.8989 53.9808 42.4197 54.0202 42.3997 54.9543 41.8956 54.9932 41.8746 55.0316 41.8526 55.952 41.324 55.952 41.05 55.9193 41.0652 55.1347 41.4289 54.3379 41.7651 54.3047 41.7791 53.4967 42.0873 53.463 42.1001 52.6448 42.38 52.6107 42.3917 51.7832 42.6429 51.7487 42.6534 50.9129 42.8757 50.8781 42.8849 50.0351 43.078 50 43.086 50 44.238 z " style="fill: red; stroke: black; stroke-width: 0; fill-type: evenodd" slic3r:area="-0.0021" />
		<path d="M 50.9836 45.4381 51.0246 45.4162 51.9964 44.8685 52.0369 44.8457 52.9962 44.2767 53.0362 44.253 53.9827 43.6629 54.0222 43.6383 54.9554 43.0273 54.9943 43.0018 55.0326 42.9755 55.952 42.344 55.952 41.786 55.9136 41.8101 54.9913 42.3897 54.0564 42.9486 54.0175 42.9719 53.0704 43.5098 53.0309 43.5323 52.0721 44.0491 52.0322 44.0706 51.0621 44.5659 51.0217 44.5866 50.0409 45.0603 50 45.08 50 45.964 z " style="fill: yellow; stroke: black; stroke-width: 0; fill-type: evenodd" slic3r:area="-0.0021" />
		<path d="M 52.2806 45.4248 52.3187 45.4018 53.2157 44.8237 53.2531 44.7996 54.1339 44.197 54.1706 44.1719 55.0345 43.5453 55.0704 43.5192 55.1057 43.4921 55.952 42.842 55.952 42.5 55.9175 42.5252 55.0895 43.1307 54.2477 43.717 54.2127 43.7415 53.3577 44.3083 53.322 44.3319 52.4542 44.8788 52.4181 44.9016 51.5379 45.4285 51.5012 45.4504 50.6092 45.9569 50.572 45.978 51.368 45.978 z " style="fill: orange; stroke: black; stroke-width: 0; fill-type: evenodd" slic3r:area="-0.0021" />
		<path d="M 55.952 43.086 55.9148 43.1161 55.0214 43.8375 54.1138 44.5408 54.0759 44.5701 53.1544 45.2552 53.116 45.2837 52.181 45.9502 52.142 45.978 55.952 45.978 z " style="fill: navy; stroke: black; stroke-width: 0; fill-type: evenodd" slic3r:area="-0.0021" />
	</g>
	<g id="layer1" slic3r:z="0.8000" slic3r:slice-z="0.6000" slic3r:layer-height="0.4000">
		<path d="M 50.5982 41.625 50.6798 41.6205 51.2761 41.5635 51.3575 41.5557 51.9079 41.4805 52.032 41.4636 52.6218 41.3587 52.7023 41.3444 53.2874 41.2158 53.3672 41.1982 53.9095 41.056 54.0257 41.0254 54.5986 40.8502 54.6767 40.8262 54.7538 40.7992 55.3192 40.601 55.8761 40.3801 55.952 40.35 55.952 40 50 40 50 41.658 z " style="fill: green; stroke: black; stroke-width: 0; fill-type: evenodd" slic3r:area="-0.0021" />
		<path d="M 50.6756 42.5302 50.7677 42.513 51.4387 42.365 51.5302 42.3448 52.1961 42.1748 52.2869 42.1516 52.3768 42.1254 53.0367 41.9335 53.6898 41.7199 53.7789 41.6908 54.4247 41.4558 54.5127 41.4238 55.1504 41.1677 55.2374 41.1328 55.8662 40.8558 55.952 40.818 55.952 40.5 55.8665 40.535 55.2394 40.7921 55.1526 40.8235 54.5154 41.0543 54.4272 41.0821 53.781 41.2861 53.6918 41.3102 53.0376 41.4872 52.9475 41.5076 52.2865 41.6572 52.1956 41.6738 51.529 41.7958 51.4375 41.8087 50.7664 41.9028 50.6744 41.9118 50 41.978 50 42.656 z " style="fill: blue; stroke: black; stroke-width: 0; fill-type: evenodd" slic3r:area="-0.0021" />
		<path d="M 50.9002 43.8688 51.0229 43.8184 51.913 43.4255 52.0344 43.3719 52.9138 42.9557 53.0337 42.8989 53.9019 42.4596 54.0202 42.3997 54.8765 41.9376 54.9932 41.8746 55.1083 41.8085 55.952 41.324 55.952 41.05 55.8539 41.0955 55.1347 41.4289 54.4043 41.737 54.3047 41.7791 53.4964 42.0874 53.463 42.1001 52.713 42.3567 52.6107 42.3917 51.8521 42.622 51.7487 42.6534 50.9826 42.8572 50.8781 42.8849 50.1054 43.0619 50 43.086 50 44.238 z " style="fill: red; stroke: black; stroke-width: 0; fill-type: evenodd" slic3r:area="-0.0021" />
		<path d="M 50.9017 45.4819 51.0246 45.4162 51.9154 44.9142 52.0369 44.8457 52.9163 44.3241 53.0362 44.253 53.9039 43.712 54.0222 43.6383 54.8776 43.0782 54.9943 43.0018 55.1092 42.9229 55.952 42.344 55.952 41.786 55.8367 41.8584 54.9913 42.3897 54.1343 42.902 54.0175 42.9719 53.1493 43.465 53.0309 43.5323 52.152 44.006 52.0322 44.0706 51.1429 44.5247 51.0217 44.5866 50.1226 45.0208 50 45.08 50 45.964 z " style="fill: yellow; stroke: black; stroke-width: 0; fill-type: evenodd" slic3r:area="-0.0021" />
		<path d="M 52.2046 45.4709 52.3187 45.4018 53.2179 44.8223 53.2531 44.7996 54.0605 44.2473 54.1706 44.1719 54.9625 43.5976 55.0704 43.5192 55.1762 43.438 55.952 42.842 55.952 42.5 55.8485 42.5757 55.0895 43.1307 54.3179 43.6682 54.2127 43.7415 53.4289 44.261 53.322 44.3319 52.5265 44.8333 52.4181 44.9016 51.6112 45.3846 51.5012 45.4504 50.6835 45.9147 50.572 45.978 51.368 45.978 z " style="fill: orange; stroke: black; stroke-width: 0; fill-type: evenodd" slic3r:area="-0.0021" />
		<path d="M 55.952 43.086 55.8403 43.1762 55.0214 43.8375 54.1894 44.4822 54.0759 44.5701 53.2312 45.1981 53.116 45.2837 52.2589 45.8947 52.142 45.978 55.952 45.978 z " style="fill: navy; stroke: black; stroke-width: 0; fill-type: evenodd" slic3r:area="-0.0021" />
	</g>
	<g id="layer2" slic3r:z="1.2000" slic3r:slice-z="1.0000" slic3r:layer-height="0.4000">
		<path d="M 50.5438 41.628 50.6798 41.6205 51.2219 41.5686 51.3575 41.5557 51.8971 41.482 52.032 41.4636 52.5682 41.3682 52.7023 41.3444 53.2342 41.2275 53.3672 41.1982 53.894 41.06 54.0257 41.0254 54.5465 40.8661 54.6767 40.8262 54.8052 40.7812 55.3192 40.601 55.8254 40.4002 55.952 40.35 55.952 40 50 40 50 41.658 z " style="fill: green; stroke: black; stroke-width: 0; fill-type: evenodd" slic3r:area="-0.0021" />
		<path d="M 50.6142 42.5416 50.7677 42.513 51.3777 42.3785 51.5303 42.3448 52.1355 42.1902 52.2869 42.1516 52.4368 42.1079 53.0367 41.9335 53.6305 41.7393 53.7789 41.6908 54.366 41.4772 54.5127 41.4238 55.0924 41.191 55.2374 41.1328 55.8091 40.881 55.952 40.818 55.952 40.5 55.8095 40.5584 55.2394 40.7921 55.0946 40.8445 54.5154 41.0543 54.3685 41.1006 53.781 41.2861 53.6323 41.3263 53.0376 41.4872 52.8874 41.5212 52.2865 41.6572 52.0762 41.6957 51.529 41.7958 50.7664 41.9028 50.6131 41.9179 50 41.978 50 42.656 z " style="fill: blue; stroke: black; stroke-width: 0; fill-type: evenodd" slic3r:area="-0.0021" />
		<path d="M 50.7874 43.915 51.0229 43.8184 51.8321 43.4612 52.0344 43.3719 52.8339 42.9935 53.0337 42.8989 53.8229 42.4996 54.0202 42.3997 54.7986 41.9796 54.9932 41.8746 55.185 41.7645 55.952 41.324 55.952 41.05 55.7885 41.1258 55.1347 41.4289 54.4707 41.709 54.3047 41.7791 53.6314 42.0359 53.463 42.1001 52.7812 42.3334 52.6107 42.3917 51.9211 42.6011 51.7487 42.6534 50.8781 42.8849 50.1756 43.0458 50 43.086 50 44.238 z " style="fill: red; stroke: black; stroke-width: 0; fill-type: evenodd" slic3r:area="-0.0021" />
		<path d="M 50.8197 45.5257 51.0246 45.4162 51.8344 44.9598 52.0369 44.8457 52.8363 44.3716 53.0362 44.253 53.825 43.7612 54.0222 43.6383 54.7998 43.1291 54.9943 43.0018 55.1858 42.8703 55.952 42.344 55.952 41.786 55.7599 41.9067 54.9913 42.3897 54.2365 42.8409 54.0175 42.9719 53.2282 43.4202 53.0309 43.5323 52.2319 43.9629 52.0322 44.0706 51.2238 44.4834 51.0217 44.5866 50.2043 44.9813 50 45.08 50 45.964 z " style="fill: yellow; stroke: black; stroke-width: 0; fill-type: evenodd" slic3r:area="-0.0021" />
		<path d="M 52.1285 45.517 52.3187 45.4018 53.0662 44.92 53.2531 44.7996 53.9871 44.2975 54.1706 44.1719 54.8905 43.6498 55.0704 43.5192 55.2468 43.3838 55.952 42.842 55.952 42.5 55.7795 42.6261 55.0895 43.1307 54.388 43.6193 54.2127 43.7415 53.5002 44.2138 53.322 44.3319 52.5989 44.7877 52.4181 44.9016 51.6846 45.3407 51.5012 45.4504 50.7578 45.8725 50.572 45.978 51.368 45.978 z " style="fill: orange; stroke: black; stroke-width: 0; fill-type: evenodd" slic3r:area="-0.0021" />
		<path d="M 55.952 43.086 55.7659 43.2363 55.0214 43.8375 54.0759 44.5701 53.308 45.141 53.116 45.2837 52.3368 45.8391 52.142 45.978 55.952 45.978 z " style="fill: navy; stroke: black; stroke-width: 0; fill-type: evenodd" slic3r:area="-0.0021" />
	</g>
	<g id="layer3" slic3r:z="1.6000" slic3r:slice-z="1.4000" slic3r:layer-height="0.4000">
		<path d="M 50.4894 41.631 50.6798 41.6205 51.1677 41.5738 51.3575 41.5557 51.8431 41.4894 52.032 41.4636 52.5146 41.3777 52.7023 41.3444 53.181 41.2392 53.3672 41.1982 53.8413 41.0738 54.0257 41.0254 54.5589 40.8623 54.6767 40.8262 54.8566 40.7632 55.3192 40.601 55.7748 40.4203 55.952 40.35 55.952 40 50 40 50 41.658 z " style="fill: green; stroke: black; stroke-width: 0; fill-type: evenodd" slic3r:area="-0.0021" />
		<path d="M 50.5527 42.5531 50.7677 42.513 51.3774 42.3785 51.3774 42.3785 51.5303 42.3448 52.075 42.2057 52.2869 42.1516 52.4968 42.0905 53.0367 41.9335 53.5711 41.7588 53.7789 41.6908 54.3073 41.4986 54.5127 41.4238 55.0345 41.2143 55.2374 41.1328 55.7519 40.9061 55.952 40.818 55.952 40.5 55.7525 40.5818 55.2394 40.7921 55.0367 40.8655 54.5154 41.0543 54.3097 41.1192 53.781 41.2861 53.5729 41.3424 53.0376 41.4872 52.8273 41.5348 52.2865 41.6572 52.0744 41.696 51.529 41.7958 51.3155 41.8258 50.7664 41.9028 50.5518 41.9239 50 41.978 50 42.656 z " style="fill: blue; stroke: black; stroke-width: 0; fill-type: evenodd" slic3r:area="-0.0021" />
		<path d="M 50.7365 43.9359 51.0229 43.8184 51.7512 43.497 52.0344 43.3719 52.7539 43.0314 53.0337 42.8989 53.744 42.5395 54.0202 42.3997 54.7208 42.0216 54.9932 41.8746 55.2617 41.7204 55.952 41.324 55.952 41.05 55.7232 41.1561 55.1347 41.4289 54.5371 41.681 54.3047 41.7791 53.6987 42.0102 53.463 42.1001 52.8493 42.3101 52.6107 42.3917 51.9901 42.5801 51.7487 42.6534 51.1219 42.8201 50.8781 42.8849 50.2846 43.0208 50 43.086 50 44.238 z " style="fill: red; stroke: black; stroke-width: 0; fill-type: evenodd" slic3r:area="-0.0021" />
		<path d="M 50.7377 45.5696 51.0246 45.4162 51.7534 45.0054 52.0369 44.8457 52.7564 44.419 53.0362 44.253 53.7461 43.8104 54.0222 43.6383 54.7221 43.18 54.9943 43.0018 55.2624 42.8176 55.952 42.344 55.952 41.786 55.683 41.955 54.9913 42.3897 54.2568 42.8288 54.0175 42.9719 53.3072 43.3753 53.0309 43.5323 52.3118 43.9199 52.0322 44.0706 51.3046 44.4421 51.0217 44.5866 50.3143 44.9282 50 45.08 50 45.964 z " style="fill: yellow; stroke: black; stroke-width: 0; fill-type: evenodd" slic3r:area="-0.0021" />
		<path d="M 52.0525 45.5631 52.3187 45.4018 52.9914 44.9682 53.2531 44.7996 53.9137 44.3477 54.1706 44.1719 54.8185 43.702 55.0704 43.5192 55.3173 43.3296 55.952 42.842 55.952 42.5 55.7105 42.6766 55.0895 43.1307 54.4582 43.5705 54.2127 43.7415 53.5714 44.1666 53.322 44.3319 52.6712 44.7421 52.4181 44.9016 51.7579 45.2968 51.5012 45.4504 50.8322 45.8303 50.572 45.978 51.368 45.978 z " style="fill: orange; stroke: black; stroke-width: 0; fill-type: evenodd" slic3r:area="-0.0021" />
		<path d="M 55.952 43.086 55.6914 43.2964 55.0214 43.8375 54.3407 44.365 54.0759 44.5701 53.3848 45.0839 53.116 45.2837 52.4147 45.7836 52.142 45.978 55.952 45.978 z " style="fill: navy; stroke: black; stroke-width: 0; fill-type: evenodd" slic3r:area="-0.0021" />
	</g>
	<g id="layer4" slic3r:z="2.0000" slic3r:slice-z="1.8000" slic3r:layer-height="0.4000">
		<path d="M 50.435 41.634 50.6798 41.6205 51.1135 41.579 51.3575 41.5557 51.7892 41.4967 52.032 41.4636 52.5196 41.3769 52.7023 41.3444 53.1278 41.2508 53.3672 41.1982 53.7514 41.0974 54.0257 41.0254 54.4423 40.898 54.6767 40.8262 54.908 40.7451 55.3192 40.601 55.7242 40.4404 55.952 40.35 55.952 40 50 40 50 41.658 z " style="fill: green; stroke: black; stroke-width: 0; fill-type: evenodd" slic3r:area="-0.0021" />
		<path d="M 50.4913 42.5645 50.7677 42.513 51.2557 42.4054 51.5302 42.3448 52.0145 42.2211 52.2869 42.1516 52.5568 42.0731 53.0367 41.9335 53.5117 41.7782 53.7789 41.6908 54.3155 41.4956 54.5127 41.4238 54.9452 41.2501 55.2374 41.1328 55.6947 40.9313 55.952 40.818 55.952 40.5 55.6955 40.6051 55.2394 40.7921 54.9788 40.8865 54.5154 41.0543 54.251 41.1377 53.781 41.2861 53.5134 41.3585 53.0376 41.4872 52.7672 41.5484 52.2865 41.6572 52.0138 41.7071 51.529 41.7958 51.2545 41.8343 50.7664 41.9028 50.4905 41.9299 50 41.978 50 42.656 z " style="fill: blue; stroke: black; stroke-width: 0; fill-type: evenodd" slic3r:area="-0.0021" />
		<path d="M 50.6547 43.9695 51.0229 43.8184 51.6703 43.5327 52.0344 43.3719 52.674 43.0692 53.0337 42.8989 53.6651 42.5794 54.0202 42.3997 54.6429 42.0636 54.9932 41.8746 55.3384 41.6764 55.952 41.324 55.952 41.05 55.6578 41.1864 55.1347 41.4289 54.5342 41.6822 54.3047 41.7791 53.766 41.9846 53.463 42.1001 52.9175 42.2867 52.6107 42.3917 52.059 42.5592 51.7487 42.6534 51.1915 42.8016 50.8781 42.8849 50.3161 43.0136 50 43.086 50 44.238 z " style="fill: red; stroke: black; stroke-width: 0; fill-type: evenodd" slic3r:area="-0.0021" />
		<path d="M 50.6558 45.6134 51.0246 45.4162 51.6725 45.0511 52.0369 44.8457 52.6765 44.4664 53.0362 44.253 53.6672 43.8596 54.0222 43.6383 54.6443 43.231 54.9943 43.0018 55.339 42.765 55.952 42.344 55.952 41.786 55.6062 42.0033 54.9913 42.3897 54.3681 42.7623 54.0175 42.9719 53.3861 43.3305 53.0309 43.5323 52.3917 43.8768 52.0322 44.0706 51.3855 44.4008 51.0217 44.5866 50.3678 44.9024 50 45.08 50 45.964 z " style="fill: yellow; stroke: black; stroke-width: 0; fill-type: evenodd" slic3r:area="-0.0021" />
		<path d="M 51.9764 45.6092 52.3187 45.4018 52.9167 45.0164 53.2531 44.7996 53.8403 44.3979 54.1706 44.1719 54.7465 43.7542 55.0704 43.5192 55.3878 43.2754 55.952 42.842 55.952 42.5 55.6415 42.7271 55.0895 43.1307 54.5283 43.5216 54.2127 43.7415 53.6427 44.1193 53.322 44.3319 52.7435 44.6965 52.4181 44.9016 51.8313 45.2529 51.5012 45.4504 50.9065 45.7881 50.572 45.978 51.368 45.978 z " style="fill: orange; stroke: black; stroke-width: 0; fill-type: evenodd" slic3r:area="-0.0021" />
		<path d="M 55.952 43.086 55.617 43.3565 55.0214 43.8375 54.4163 44.3064 54.0759 44.5701 53.4616 45.0268 53.116 45.2837 52.4926 45.7281 52.142 45.978 55.952 45.978 z " style="fill: navy; stroke: black; stroke-width: 0; fill-type: evenodd" slic3r:area="-0.0021" />
	</g>
	<g id="layer5" slic3r:z="2.4000" slic3r:slice-z="2.2000" slic3r:layer-height="0.4000">
		<path d="M 50.4333 41.6341 50.6798 41.6205 51.0593 41.5842 51.3575 41.5557 51.7352 41.5041 52.032 41.4636 52.4074 41.3968 52.7023 41.3444 53.0746 41.2625 53.3672 41.1982 53.736 41.1015 54.0257 41.0254 54.3903 40.9139 54.6767 40.8262 55.0258 40.7038 55.3192 40.601 55.6735 40.4604 55.952 40.35 55.952 40 50 40 50 41.658 z " style="fill: green; stroke: black; stroke-width: 0; fill-type: evenodd" slic3r:area="-0.0021" />
		<path d="M 50.4299 42.5759 50.7677 42.513 51.2554 42.4054 51.2554 42.4054 51.5303 42.3448 51.9539 42.2366 52.2869 42.1516 52.6168 42.0556 53.0367 41.9335 53.4523 41.7976 53.7789 41.6908 54.1898 41.5413 54.5127 41.4238 54.9185 41.2608 55.2374 41.1328 55.6376 40.9565 55.952 40.818 55.952 40.5 55.6385 40.6285 55.2394 40.7921 54.9208 40.9074 54.5154 41.0543 54.1922 41.1563 53.781 41.2861 53.4539 41.3746 53.0376 41.4872 52.7071 41.562 52.2865 41.6572 51.9532 41.7182 51.529 41.7958 51.1935 41.8429 50.7664 41.9028 50.4292 41.9359 50 41.978 50 42.656 z " style="fill: blue; stroke: black; stroke-width: 0; fill-type: evenodd" slic3r:area="-0.0021" />
		<path d="M 50.5728 44.003 51.0229 43.8184 51.5893 43.5684 52.0344 43.3719 52.594 43.1071 53.0337 42.8989 53.5862 42.6194 54.0202 42.3997 54.5651 42.1057 54.9932 41.8746 55.4151 41.6323 55.952 41.324 55.952 41.05 55.5924 41.2167 55.1347 41.4289 54.6699 41.625 54.3047 41.7791 53.8334 41.9589 53.463 42.1001 52.9857 42.2634 52.6107 42.3917 52.0636 42.5578 51.7487 42.6534 51.2612 42.7831 50.8781 42.8849 50.3864 42.9975 50 43.086 50 44.238 z " style="fill: red; stroke: black; stroke-width: 0; fill-type: evenodd" slic3r:area="-0.0021" />
		<path d="M 50.5738 45.6572 51.0246 45.4162 51.5915 45.0967 52.0369 44.8457 52.5965 44.5138 53.0362 44.253 53.5884 43.9088 54.0222 43.6383 54.6438 43.2313 54.9943 43.0018 55.4157 42.7124 55.952 42.344 55.952 41.786 55.5293 42.0516 54.9913 42.3897 54.446 42.7157 54.0175 42.9719 53.465 43.2857 53.0309 43.5323 52.4716 43.8337 52.0322 44.0706 51.3937 44.3966 51.0217 44.5866 50.4777 44.8493 50 45.08 50 45.964 z " style="fill: yellow; stroke: black; stroke-width: 0; fill-type: evenodd" slic3r:area="-0.0021" />
		<path d="M 51.9004 45.6553 52.3187 45.4018 52.8419 45.0646 53.2531 44.7996 53.7669 44.4481 54.1706 44.1719 54.6745 43.8064 55.0704 43.5192 55.4583 43.2212 55.952 42.842 55.952 42.5 55.5725 42.7775 55.0895 43.1307 54.5985 43.4727 54.2127 43.7415 53.7648 44.0384 53.322 44.3319 52.8158 44.6509 52.4181 44.9016 51.9046 45.209 51.5012 45.4504 50.9809 45.7459 50.572 45.978 51.368 45.978 z " style="fill: orange; stroke: black; stroke-width: 0; fill-type: evenodd" slic3r:area="-0.0021" />
		<path d="M 55.952 43.086 55.5425 43.4166 55.0214 43.8375 54.4919 44.2478 54.0759 44.5701 53.5384 44.9698 53.116 45.2837 52.5706 45.6725 52.142 45.978 55.952 45.978 z " style="fill: navy; stroke: black; stroke-width: 0; fill-type: evenodd" slic3r:area="-0.0021" />
	</g>
	<g id="layer6" slic3r:z="2.8000" slic3r:slice-z="2.6000" slic3r:layer-height="0.4000">
		<path d="M 50.3263 41.64 50.6798 41.6205 51.0051 41.5894 51.3575 41.5557 51.6812 41.5115 52.032 41.4636 52.3537 41.4064 52.7023 41.3444 53.0214 41.2742 53.3672 41.1982 53.6833 41.1153 54.0257 41.0254 54.3382 40.9298 54.6767 40.8262 55.0108 40.7091 55.3192 40.601 55.6229 40.4805 55.952 40.35 55.952 40 50 40 50 41.658 z " style="fill: green; stroke: black; stroke-width: 0; fill-type: evenodd" slic3r:area="-0.0021" />
		<path d="M 50.3685 42.5874 50.7677 42.513 51.1337 42.4323 51.5303 42.3448 51.9557 42.2362 52.2869 42.1516 52.6768 42.0382 53.0367 41.9335 53.3929 41.817 53.7789 41.6908 54.1311 41.5627 54.5127 41.4238 54.8606 41.2841 55.2374 41.1328 55.5804 40.9817 55.952 40.818 55.952 40.5 55.5815 40.6519 55.2394 40.7921 54.8629 40.9284 54.5154 41.0543 54.1335 41.1748 53.781 41.2861 53.3315 41.4077 53.0376 41.4872 52.6471 41.5756 52.2865 41.6572 51.8926 41.7293 51.529 41.7958 51.1325 41.8515 50.7664 41.9028 50.3679 41.9419 50 41.978 50 42.656 z " style="fill: blue; stroke: black; stroke-width: 0; fill-type: evenodd" slic3r:area="-0.0021" />
		<path d="M 50.491 44.0366 51.0229 43.8184 51.5785 43.5732 52.0344 43.3719 52.5141 43.1449 53.0337 42.8989 53.5073 42.6593 54.0202 42.3997 54.4873 42.1477 54.9932 41.8746 55.4918 41.5883 55.952 41.324 55.952 41.05 55.527 41.247 55.1347 41.4289 54.7363 41.597 54.3047 41.7791 53.9007 41.9332 53.463 42.1001 53.0539 42.2401 52.6107 42.3917 52.1969 42.5173 51.7487 42.6534 51.3308 42.7645 50.8781 42.8849 50.4566 42.9814 50 43.086 50 44.238 z " style="fill: red; stroke: black; stroke-width: 0; fill-type: evenodd" slic3r:area="-0.0021" />
		<path d="M 50.4918 45.701 51.0246 45.4162 51.5105 45.1424 52.0369 44.8457 52.5166 44.5612 53.0362 44.253 53.5095 43.9579 54.0222 43.6383 54.4888 43.3328 54.9943 43.0018 55.4923 42.6598 55.952 42.344 55.952 41.786 55.4524 42.0999 54.9913 42.3897 54.5239 42.6691 54.0175 42.9719 53.5439 43.2409 53.0309 43.5323 52.5515 43.7907 52.0322 44.0706 51.4745 44.3553 51.4745 44.3553 51.0217 44.5866 50.4597 44.858 50 45.08 50 45.964 z " style="fill: yellow; stroke: black; stroke-width: 0; fill-type: evenodd" slic3r:area="-0.0021" />
		<path d="M 51.8243 45.7014 52.3187 45.4018 52.7152 45.1462 53.2531 44.7996 53.6935 44.4983 54.1706 44.1719 54.6025 43.8586 55.0704 43.5192 55.5289 43.1671 55.952 42.842 55.952 42.5 55.5035 42.828 55.0895 43.1307 54.6686 43.4239 54.2127 43.7415 53.7852 44.0249 53.322 44.3319 52.9114 44.5907 52.4181 44.9016 51.978 45.1651 51.5012 45.4504 51.0552 45.7037 50.572 45.978 51.368 45.978 z " style="fill: orange; stroke: black; stroke-width: 0; fill-type: evenodd" slic3r:area="-0.0021" />
		<path d="M 55.952 43.086 55.4681 43.4768 55.0214 43.8375 54.5676 44.1891 54.0759 44.5701 53.6152 44.9127 53.116 45.2837 52.6485 45.617 52.142 45.978 55.952 45.978 z " style="fill: navy; stroke: black; stroke-width: 0; fill-type: evenodd" slic3r:area="-0.0021" />
	</g>
	<g id="layer7" slic3r:z="3.2000" slic3r:slice-z="3.0000" slic3r:layer-height="0.4000">
		<path d="M 50.2719 41.643 50.6798 41.6205 50.9508 41.5946 51.3575 41.5557 51.6273 41.5188 52.032 41.4636 52.3001 41.4159 52.7023 41.3444 52.9682 41.2859 53.3672 41.1982 53.6306 41.1291 54.0257 41.0254 54.2861 40.9458 54.6767 40.8262 55.0622 40.6911 55.3192 40.601 55.5723 40.5006 55.952 40.35 55.952 40 50 40 50 41.658 z " style="fill: green; stroke: black; stroke-width: 0; fill-type: evenodd" slic3r:area="-0.0021" />
		<path d="M 50.3071 42.5988 50.7677 42.513 51.0727 42.4457 51.5302 42.3448 51.8329 42.2675 52.2869 42.1516 52.8006 42.0022 53.0367 41.9335 53.399 41.815 53.7789 41.6908 54.0724 41.584 54.5127 41.4238 54.8026 41.3074 55.2374 41.1328 55.5232 41.0069 55.952 40.818 55.952 40.5 55.5245 40.6752 55.2394 40.7921 54.7381 40.9736 54.5154 41.0543 54.0747 41.1934 53.781 41.2861 53.272 41.4238 53.0376 41.4872 52.587 41.5892 52.2865 41.6572 51.7732 41.7511 51.529 41.7958 50.7664 41.9028 50.3066 41.9479 50 41.978 50 42.656 z " style="fill: blue; stroke: black; stroke-width: 0; fill-type: evenodd" slic3r:area="-0.0021" />
		<path d="M 50.4092 44.0702 51.0229 43.8184 51.4275 43.6398 52.0344 43.3719 52.4341 43.1827 53.0337 42.8989 53.4283 42.6992 54.0202 42.3997 54.4094 42.1897 54.9932 41.8746 55.5685 41.5442 55.952 41.324 55.952 41.05 55.4905 41.2639 55.1347 41.4289 54.8027 41.569 54.3047 41.7791 53.968 41.9075 53.463 42.1001 53.1221 42.2168 52.6107 42.3917 52.2659 42.4964 51.7487 42.6534 51.4005 42.746 50.8781 42.8849 50.5269 42.9654 50 43.086 50 44.238 z " style="fill: red; stroke: black; stroke-width: 0; fill-type: evenodd" slic3r:area="-0.0021" />
		<path d="M 50.4833 45.7056 51.0246 45.4162 51.4295 45.188 52.0369 44.8457 52.4366 44.6086 53.0362 44.253 53.4306 44.0071 54.0222 43.6383 54.411 43.3837 54.9943 43.0018 55.5689 42.6071 55.952 42.344 55.952 41.786 55.3756 42.1482 54.9913 42.3897 54.6018 42.6226 54.0175 42.9719 53.6229 43.196 53.0309 43.5323 52.6314 43.7476 52.0322 44.0706 51.628 44.277 51.0217 44.5866 50.613 44.784 50 45.08 50 45.964 z " style="fill: yellow; stroke: black; stroke-width: 0; fill-type: evenodd" slic3r:area="-0.0021" />
		<path d="M 51.7483 45.7475 52.3187 45.4018 52.6924 45.1609 53.2531 44.7996 53.6201 44.5485 54.1706 44.1719 54.5305 43.9108 55.0704 43.5192 55.5994 43.1129 55.952 42.842 55.952 42.5 55.3551 42.9365 55.0895 43.1307 54.7387 43.375 54.2127 43.7415 53.8564 43.9776 53.322 44.3319 52.9604 44.5598 52.4181 44.9016 52.0513 45.1211 51.5012 45.4504 51.1295 45.6615 50.572 45.978 51.368 45.978 z " style="fill: orange; stroke: black; stroke-width: 0; fill-type: evenodd" slic3r:area="-0.0021" />
		<path d="M 55.952 43.086 55.3936 43.5369 55.0214 43.8375 54.0759 44.5701 53.692 44.8556 53.116 45.2837 52.7264 45.5614 52.142 45.978 55.952 45.978 z " style="fill: navy; stroke: black; stroke-width: 0; fill-type: evenodd" slic3r:area="-0.0021" />
	</g>
	<g id="layer8" slic3r:z="3.6000" slic3r:slice-z="3.4000" slic3r:layer-height="0.4000">
		<path d="M 50.2175 41.646 50.6798 41.6205 50.8966 41.5998 51.3575 41.5557 51.5733 41.5262 52.032 41.4636 52.2465 41.4254 52.7023 41.3444 52.9151 41.2976 53.3672 41.1982 53.5779 41.1429 54.0257 41.0254 54.234 40.9617 54.6767 40.8262 55.1136 40.6731 55.3192 40.601 55.5217 40.5207 55.952 40.35 55.952 40 50 40 50 41.658 z " style="fill: green; stroke: black; stroke-width: 0; fill-type: evenodd" slic3r:area="-0.0021" />
		<path d="M 50.2457 42.6102 50.7677 42.513 51.0117 42.4592 51.5303 42.3448 51.7724 42.283 52.2869 42.1516 52.7967 42.0033 53.0367 41.9335 53.2742 41.8558 53.7789 41.6908 54.0137 41.6054 54.5127 41.4238 54.7133 41.3432 55.2374 41.1328 55.466 41.032 55.952 40.818 55.952 40.5 55.4675 40.6986 55.2394 40.7921 54.7471 40.9704 54.5154 41.0543 54.016 41.2119 53.781 41.2861 53.2755 41.4228 53.0376 41.4872 52.5269 41.6028 52.2865 41.6572 51.7714 41.7515 51.529 41.7958 51.0104 41.8686 50.7664 41.9028 50.2452 41.9539 50 41.978 50 42.656 z " style="fill: blue; stroke: black; stroke-width: 0; fill-type: evenodd" slic3r:area="-0.0021" />
		<path d="M 50.3273 44.1037 51.0229 43.8184 51.3466 43.6755 52.0344 43.3719 52.3542 43.2206 53.0337 42.8989 53.3494 42.7392 54.0202 42.3997 54.3316 42.2317 54.9932 41.8746 55.6452 41.5002 55.952 41.324 55.952 41.05 55.3962 41.3076 55.1347 41.4289 54.8691 41.5409 54.3047 41.7791 54.0354 41.8818 53.463 42.1001 53.1903 42.1934 52.6107 42.3917 52.3348 42.4755 51.7487 42.6534 51.4701 42.7275 50.8781 42.8849 50.5971 42.9493 50 43.086 50 44.238 z " style="fill: red; stroke: black; stroke-width: 0; fill-type: evenodd" slic3r:area="-0.0021" />
		<path d="M 50.3279 45.7887 51.0246 45.4162 51.3486 45.2336 52.0369 44.8457 52.3567 44.6561 53.0362 44.253 53.3517 44.0563 54.0222 43.6383 54.3332 43.4346 54.9943 43.0018 55.6455 42.5545 55.952 42.344 55.952 41.786 55.2987 42.1965 54.9913 42.3897 54.6797 42.576 54.0175 42.9719 53.7018 43.1512 53.0309 43.5323 52.7113 43.7045 52.0322 44.0706 51.7088 44.2357 51.0217 44.5866 50.6947 44.7445 50 45.08 50 45.964 z " style="fill: yellow; stroke: black; stroke-width: 0; fill-type: evenodd" slic3r:area="-0.0021" />
		<path d="M 51.6722 45.7936 52.3187 45.4018 52.6177 45.2091 53.2531 44.7996 53.5467 44.5988 54.1706 44.1719 54.4585 43.9631 55.0704 43.5192 55.6699 43.0587 55.952 42.842 55.952 42.5 55.331 42.9541 55.0895 43.1307 54.8089 43.3262 54.2127 43.7415 53.95 43.9156 53.322 44.3319 53.0328 44.5142 52.4181 44.9016 52.1247 45.0772 51.5012 45.4504 51.2039 45.6193 50.572 45.978 51.368 45.978 z " style="fill: orange; stroke: black; stroke-width: 0; fill-type: evenodd" slic3r:area="-0.0021" />
		<path d="M 55.952 43.086 55.3192 43.597 55.0214 43.8375 54.7189 44.0719 54.0759 44.5701 53.7688 44.7985 53.116 45.2837 52.8043 45.5059 52.142 45.978 55.952 45.978 z " style="fill: navy; stroke: black; stroke-width: 0; fill-type: evenodd" slic3r:area="-0.0021" />
	</g>
	<g id="layer9" slic3r:z="4.0000" slic3r:slice-z="3.8000" slic3r:layer-height="0.4000">
		<path d="M 50.1631 41.649 50.6798 41.6205 50.8971 41.5997 51.3575 41.5557 51.5194 41.5336 52.032 41.4636 52.1929 41.435 52.7023 41.3444 52.8619 41.3093 53.3672 41.1982 53.5252 41.1568 54.0257 41.0254 54.1819 40.9776 54.6767 40.8262 55.165 40.655 55.3192 40.601 55.471 40.5407 55.952 40.35 55.952 40 50 40 50 41.658 z " style="fill: green; stroke: black; stroke-width: 0; fill-type: evenodd" slic3r:area="-0.0021" />
		<path d="M 50.1842 42.6217 50.7677 42.513 50.9507 42.4726 51.5303 42.3448 51.7118 42.2984 52.2869 42.1516 52.8567 41.9858 53.0367 41.9335 53.2148 41.8752 53.7789 41.6908 53.955 41.6267 54.5127 41.4238 54.6866 41.354 55.2374 41.1328 55.4089 41.0572 55.952 40.818 55.952 40.5 55.4105 40.722 55.2394 40.7921 54.6891 40.9913 54.5154 41.0543 53.9572 41.2305 53.781 41.2861 53.216 41.4389 53.0376 41.4872 52.4668 41.6164 52.2865 41.6572 51.7108 41.7625 51.529 41.7958 50.9494 41.8771 50.7664 41.9028 50.1839 41.96 50 41.978 50 42.656 z " style="fill: blue; stroke: black; stroke-width: 0; fill-type: evenodd" slic3r:area="-0.0021" />
		<path d="M 50.2455 44.1373 51.0229 43.8184 51.2657 43.7113 52.0344 43.3719 52.2457 43.2719 53.0337 42.8989 53.2705 42.7791 54.0202 42.3997 54.2538 42.2737 54.9932 41.8746 55.7219 41.4561 55.952 41.324 55.952 41.05 55.3309 41.3379 55.1347 41.4289 54.9355 41.5129 54.3047 41.7791 54.1027 41.8561 53.463 42.1001 53.2585 42.1701 52.6107 42.3917 52.4038 42.4545 51.7487 42.6534 51.5398 42.709 50.8781 42.8849 50.6674 42.9332 50 43.086 50 44.238 z " style="fill: red; stroke: black; stroke-width: 0; fill-type: evenodd" slic3r:area="-0.0021" />
		<path d="M 50.2459 45.8325 51.0246 45.4162 51.2676 45.2793 52.0369 44.8457 52.2767 44.7035 53.0362 44.253 53.2728 44.1055 54.0222 43.6383 54.2555 43.4855 54.9943 43.0018 55.7221 42.5019 55.952 42.344 55.952 41.786 55.2219 42.2448 54.9913 42.3897 54.7576 42.5294 54.0175 42.9719 53.7807 43.1064 53.0309 43.5323 52.7912 43.6615 52.0322 44.0706 51.7897 44.1944 51.0217 44.5866 50.7765 44.705 50 45.08 50 45.964 z " style="fill: yellow; stroke: black; stroke-width: 0; fill-type: evenodd" slic3r:area="-0.0021" />
		<path d="M 51.5962 45.8397 52.3187 45.4018 52.5429 45.2573 53.2531 44.7996 53.4733 44.649 54.1706 44.1719 54.3865 44.0153 55.0704 43.5192 55.7404 43.0045 55.952 42.842 55.952 42.5 55.2965 42.9794 55.0895 43.1307 54.879 43.2773 54.2127 43.7415 53.9989 43.8832 53.322 44.3319 53.1051 44.4686 52.4181 44.9016 52.198 45.0333 51.5012 45.4504 51.2782 45.577 50.572 45.978 51.368 45.978 z " style="fill: orange; stroke: black; stroke-width: 0; fill-type: evenodd" slic3r:area="-0.0021" />
		<path d="M 55.952 43.086 55.2447 43.6571 55.0214 43.8375 54.7945 44.0133 54.0759 44.5701 53.8456 44.7414 53.116 45.2837 52.8823 45.4504 52.142 45.978 55.952 45.978 z " style="fill: navy; stroke: black; stroke-width: 0; fill-type: evenodd" slic3r:area="-0.0021" />
	</g>
	<g id="layer10" slic3r:z="4.4000" slic3r:slice-z="4.2000" slic3r:layer-height="0.4000">
		<path d="M 50.1088 41.652 50.6798 41.6205 50.7882 41.6101 51.3575 41.5557 51.4654 41.5409 52.032 41.4636 52.1392 41.4445 52.7023 41.3444 52.8087 41.321 53.3672 41.1982 53.4726 41.1706 54.0257 41.0254 54.1299 40.9936 54.6767 40.8262 55.2828 40.6137 55.3192 40.601 55.4204 40.5608 55.952 40.35 55.952 40 50 40 50 41.658 z " style="fill: green; stroke: black; stroke-width: 0; fill-type: evenodd" slic3r:area="-0.0021" />
		<path d="M 50.1228 42.6331 50.7677 42.513 50.8897 42.4861 51.5303 42.3448 51.6513 42.3139 52.2869 42.1516 52.9167 41.9684 53.0367 41.9335 53.1554 41.8947 53.7789 41.6908 53.8963 41.6481 54.5127 41.4238 54.6287 41.3772 55.2374 41.1328 55.3517 41.0824 55.952 40.818 55.952 40.5 55.3535 40.7453 55.2394 40.7921 54.6312 41.0123 54.5154 41.0543 53.8985 41.249 53.781 41.2861 53.1566 41.455 53.0376 41.4872 52.4067 41.63 52.2865 41.6572 51.6502 41.7736 51.529 41.7958 50.8884 41.8857 50.7664 41.9028 50.1226 41.966 50 41.978 50 42.656 z " style="fill: blue; stroke: black; stroke-width: 0; fill-type: evenodd" slic3r:area="-0.0021" />
		<path d="M 50.1637 44.1709 51.0229 43.8184 51.1848 43.747 52.0344 43.3719 52.1943 43.2963 53.0337 42.8989 53.1916 42.8191 54.0202 42.3997 54.1759 42.3157 54.9932 41.8746 55.7986 41.4121 55.952 41.324 55.952 41.05 55.1946 41.4011 55.1347 41.4289 55.0019 41.4849 54.3047 41.7791 54.1701 41.8304 53.463 42.1001 53.3267 42.1468 52.6107 42.3917 52.4728 42.4336 51.7487 42.6534 51.6094 42.6905 50.8781 42.8849 50.7376 42.9171 50 43.086 50 44.238 z " style="fill: red; stroke: black; stroke-width: 0; fill-type: evenodd" slic3r:area="-0.0021" />
		<path d="M 50.2374 45.8371 51.0246 45.4162 51.1866 45.3249 52.0369 44.8457 52.1968 44.7509 53.0362 44.253 53.194 44.1546 54.0222 43.6383 54.1777 43.5364 54.9943 43.0018 55.7988 42.4493 55.952 42.344 55.952 41.786 55.1684 42.2784 55.1684 42.2784 54.9913 42.3897 54.8355 42.4828 54.0175 42.9719 53.8596 43.0615 53.0309 43.5323 52.8711 43.6184 52.0322 44.0706 51.8705 44.1531 51.0217 44.5866 50.8864 44.6519 50 45.08 50 45.964 z " style="fill: yellow; stroke: black; stroke-width: 0; fill-type: evenodd" slic3r:area="-0.0021" />
		<path d="M 51.5201 45.8858 52.3187 45.4018 52.5451 45.2559 53.2531 44.7996 53.3999 44.6992 54.1706 44.1719 54.3146 44.0675 55.0704 43.5192 55.8109 42.9504 55.952 42.842 55.952 42.5 55.2275 43.0298 55.0895 43.1307 54.9492 43.2285 54.2127 43.7415 54.0702 43.8359 53.322 44.3319 53.1774 44.423 52.4181 44.9016 52.2714 44.9894 51.5012 45.4504 51.278 45.5772 51.278 45.5772 50.572 45.978 51.368 45.978 z " style="fill: orange; stroke: black; stroke-width: 0; fill-type: evenodd" slic3r:area="-0.0021" />
		<path d="M 55.952 43.086 55.1703 43.7172 55.0214 43.8375 54.8701 43.9547 54.0759 44.5701 53.9224 44.6843 53.116 45.2837 52.9602 45.3948 52.142 45.978 55.952 45.978 z " style="fill: navy; stroke: black; stroke-width: 0; fill-type: evenodd" slic3r:area="-0.0021" />
	</g>
	<g id="layer11" slic3r:z="4.8000" slic3r:slice-z="4.6000" slic3r:layer-height="0.4000">
		<path d="M 50.0544 41.655 50.6798 41.6205 50.734 41.6153 51.3575 41.5557 51.4114 41.5483 52.032 41.4636 52.0856 41.454 52.7023 41.3444 52.7555 41.3327 53.3672 41.1982 53.4199 41.1844 54.0257 41.0254 54.0778 41.0095 54.6767 40.8262 55.2678 40.619 55.3192 40.601 55.3383 40.5934 55.952 40.35 55.952 40 50 40 50 41.658 z " style="fill: green; stroke: black; stroke-width: 0; fill-type: evenodd" slic3r:area="-0.0021" />
		<path d="M 50.0614 42.6446 50.7677 42.513 50.8287 42.4996 51.5303 42.3448 51.5908 42.3294 52.2869 42.1516 52.9407 41.9614 53.0367 41.9335 53.0961 41.9141 53.7789 41.6908 53.8376 41.6695 54.5127 41.4238 54.5707 41.4005 55.2374 41.1328 55.2945 41.1076 55.952 40.818 55.952 40.5 55.2965 40.7687 55.2394 40.7921 54.5733 41.0333 54.5154 41.0543 53.8397 41.2675 53.781 41.2861 53.0971 41.4711 53.0376 41.4872 52.3466 41.6436 52.2865 41.6572 51.5896 41.7847 51.529 41.7958 50.8274 41.8943 50.7664 41.9028 50.0613 41.972 50 41.978 50 42.656 z " style="fill: blue; stroke: black; stroke-width: 0; fill-type: evenodd" slic3r:area="-0.0021" />
		<path d="M 50.0818 44.2044 51.0229 43.8184 51.1038 43.7827 52.0344 43.3719 52.1143 43.3341 53.0337 42.8989 53.1127 42.859 54.0202 42.3997 54.0981 42.3577 54.9932 41.8746 55.8753 41.368 55.952 41.324 55.952 41.05 55.2001 41.3986 55.1347 41.4289 55.0683 41.4569 54.3047 41.7791 54.2374 41.8048 53.463 42.1001 53.3949 42.1235 52.6107 42.3917 52.5417 42.4126 51.7487 42.6534 51.679 42.6719 50.8781 42.8849 50.8079 42.901 50 43.086 50 44.238 z " style="fill: red; stroke: black; stroke-width: 0; fill-type: evenodd" slic3r:area="-0.0021" />
		<path d="M 50.082 45.9202 51.0246 45.4162 51.1056 45.3705 52.0369 44.8457 52.1168 44.7983 53.0362 44.253 53.1151 44.2038 54.0222 43.6383 54.0999 43.5874 54.9943 43.0018 55.8754 42.3966 55.952 42.344 55.952 41.786 55.0682 42.3414 54.9913 42.3897 54.9134 42.4363 54.0175 42.9719 53.9386 43.0167 53.0309 43.5323 52.951 43.5753 52.0322 44.0706 51.9513 44.1119 51.0217 44.5866 50.94 44.6261 50 45.08 50 45.964 z " style="fill: yellow; stroke: black; stroke-width: 0; fill-type: evenodd" slic3r:area="-0.0021" />
		<path d="M 51.4441 45.9319 52.3187 45.4018 52.3934 45.3536 53.2531 44.7996 53.3265 44.7494 54.1706 44.1719 54.2426 44.1197 55.0704 43.5192 55.8815 42.8962 55.952 42.842 55.952 42.5 55.1585 43.0803 55.0895 43.1307 54.9409 43.2342 54.9409 43.2342 54.2127 43.7415 54.1414 43.7887 53.322 44.3319 53.2497 44.3774 52.4181 44.9016 52.3447 44.9455 51.5012 45.4504 51.4269 45.4926 50.572 45.978 51.368 45.978 z " style="fill: orange; stroke: black; stroke-width: 0; fill-type: evenodd" slic3r:area="-0.0021" />
		<path d="M 55.952 43.086 55.0958 43.7773 55.0214 43.8375 54.9458 43.8961 54.0759 44.5701 53.9992 44.6272 53.116 45.2837 53.0381 45.3393 52.142 45.978 55.952 45.978 z " style="fill: navy; stroke: black; stroke-width: 0; fill-type: evenodd" slic3r:area="-0.0021" />
	</g>
</svg>
